<svg width="70" height="40" viewBox="0 0 70 40" fill="none" xmlns="http://www.w3.org/2000/svg"><path d="M46.822 8.175c.165.17.22.418.144.642-.295.83-.581 2.146-.906 3.887-.326 1.743-.61 3.96-.61 7.293s.284 5.55.61 7.293c.325 1.742.606 3.053.9 3.883a.616.616 0 01-.787.788c-.83-.295-2.138-.581-3.88-.906-1.743-.326-3.96-.61-7.294-.61-3.334 0-5.55.284-7.294.61-1.742.325-3.058.616-3.888.91a.627.627 0 01-.642-.142.618.618 0 01-.14-.638c.296-.83.585-2.147.91-3.888.327-1.744.61-3.96.61-7.293s-.283-5.55-.61-7.293c-.325-1.742-.61-3.054-.905-3.884a.616.616 0 01.787-.787c.83.295 2.142.58 3.884.906 1.744.325 3.961.61 7.295.61 3.333 0 5.55-.285 7.294-.61 1.742-.326 3.055-.615 3.885-.91a.618.618 0 01.637.139z" fill="#E20026"/><path fill-rule="evenodd" clip-rule="evenodd" d="M29.038 16.42v-1.022c0-.258-.107-.398-.376-.398H27.5v1.022c0 .259.108.398.377.398h1.161zm0 6.994V17.71c0-.258-.107-.398-.376-.398H27.5v5.703c0 .258.108.398.377.398h1.161zm3.872-5.003c-.44 0-.785.226-1.14.58v3.24c.243.082.497.126.753.128.98 0 1.399-.613 1.399-1.936 0-1.367-.344-2.012-1.011-2.012zm-2.678 4.422c0 .269.108.334.387.42.495.15 1.216.247 1.829.247 2.248 0 3.098-1.302 3.098-3.325 0-1.678-.517-3.023-2.216-3.023-.57 0-1.14.258-1.56.667v-2.42c0-.259-.107-.399-.376-.399h-1.162v7.833zm7.734-5.122v5.703h-1.162c-.268 0-.376-.14-.376-.398v-5.703h1.162c.269 0 .376.14.376.398zm0-1.29v-1.023c0-.258-.107-.398-.377-.398h-1.161v1.022c0 .259.108.398.376.398h1.162zm3.28 3.174c.761.332 1.754.765 1.754 2.065 0 1.14-.925 1.84-2.226 1.84-.603 0-1.14-.076-1.571-.215a.428.428 0 01-.258-.41v-.774c.495.13 1.14.237 1.56.237.699 0 .978-.205.978-.592 0-.402-.44-.6-.957-.831-.742-.333-1.646-.738-1.646-1.923 0-.958.646-1.754 2.087-1.754.489-.002.975.07 1.442.215.172.054.269.226.269.409v.775a5.296 5.296 0 00-1.431-.237c-.71 0-.861.215-.861.505 0 .314.385.482.86.69z" fill="#fff"/></svg>